<svg width="512" height="165" viewBox="0 0 512 165" fill="none" xmlns="http://www.w3.org/2000/svg">
<mask id="mask0" mask-type="alpha" maskUnits="userSpaceOnUse" x="0" y="0" width="512" height="165">
<path fill-rule="evenodd" clip-rule="evenodd" d="M0.00012207 6.10352e-05H511.473V165H0.00012207V6.10352e-05Z" fill="white"/>
</mask>
<g mask="url(#mask0)">
<path fill-rule="evenodd" clip-rule="evenodd" d="M190.2 114.921C178.523 114.921 170.272 105.733 170.272 92.1849C170.272 78.792 178.523 69.7595 190.2 69.7595C198.451 69.604 204.834 73.0297 209.35 78.6359L225.541 66.9564C218.068 55.744 205.301 49.3585 189.265 49.3585C163.576 49.3585 146.295 66.6448 146.295 92.341C146.295 117.724 163.576 134.855 188.954 134.855C206.08 134.855 219.158 128.003 226.165 116.323L209.661 105.111C205.457 111.652 198.762 114.921 190.2 114.921ZM393.358 105.266C390.82 112.43 383.93 117.88 373.809 117.88C365.714 117.88 360.688 113.646 360.688 107.261C360.688 100.564 365.16 97.7308 374.344 97.7308H393.358V105.266ZM379.292 49.2031C364.657 49.2031 353.914 52.6293 341.46 58.8587L348.932 75.3657C357.651 70.5382 366.457 68.0461 373.93 68.0461C385.451 68.0461 391.455 73.1858 391.455 82.0622V83.7693H368.237C347.687 83.7693 336.322 93.1946 336.322 108.923C336.322 124.185 347.229 135.048 365.134 135.048C376.811 135.048 385.11 131.117 391.455 124.11V133.269H414.944L414.789 78.9335C414.633 60.0905 401.71 49.2031 379.292 49.2031ZM486.862 49.5001L466.293 101.511L445.772 49.5001H421.018L453.806 133.088L441.186 165H466.289L511.473 49.5001H486.862ZM285.912 24.1154H263.931V44.4231H284.668C298.368 44.4231 306.153 51.0803 306.153 63.2274C306.153 75.6862 298.368 82.5001 284.668 82.5001H263.931V44.4231H239.822V133.269H263.931V102.808H285.912C313.626 102.808 329.505 87.7553 329.505 62.3713C329.505 38.2331 313.626 24.1154 285.912 24.1154ZM113.355 40.1922H145.5V8.0381H113.355V40.1922ZM105.319 48.2308H153.537V6.10352e-05H105.319V48.2308ZM46.955 24.1154H24.1092V44.4231H45.709C59.4099 44.4231 67.1946 51.0803 67.1946 63.2274C67.1946 75.6862 59.4099 82.5001 45.709 82.5001H24.1092V44.4231H0.00012207V133.269H24.1092V102.808H46.955C74.6671 102.808 90.5474 87.7553 90.5474 62.3713C90.5474 38.2331 74.6671 24.1154 46.955 24.1154ZM121.391 32.1535H137.464V16.0768H121.391V32.1535ZM105.319 133.269H129.428V63.4616H105.319V133.269Z" fill="#21C25E"/>
</g>
</svg>
